<?xml version="1.0" encoding="utf-8"?>
<!DOCTYPE svg PUBLIC "-//W3C//DTD SVG 1.1//EN" "http://www.w3.org/Graphics/SVG/1.1/DTD/svg11.dtd">
<svg version="1.1" id="Layer_1" xmlns="http://www.w3.org/2000/svg" xmlns:xlink="http://www.w3.org/1999/xlink" x="0px" y="0px"
	 width="232.836px" height="177.801px" viewBox="0 0 232.836 177.801" enable-background="new 0 0 232.836 177.801"
	 xml:space="preserve">
<path fill="#ff3333" d="M232.836,99.981L147.457,0H90.708l55.763,65.727c7.457,8.788,11.456,19.425,11.262,29.954
	c-0.199,10.78-4.897,20.61-13.229,27.681c-7.209,6.116-14.955,9.217-23.027,9.217h-0.002c-10.979,0-22.048-5.916-31.163-16.656
	L57.436,77.163L0,76.987l57.213,67.441c18.258,21.521,40.334,33.375,62.16,33.373c15.02,0,29.52-5.566,41.934-16.096
	c16.527-14.022,25.894-33.595,28.312-61.371l0.032-0.354H232.836z"/>
</svg>
